<svg width="88" height="71" viewBox="0 0 88 71" fill="none" xmlns="http://www.w3.org/2000/svg">
<path d="M16.7164 60.5977C16.8347 60.5941 16.953 60.5923 17.0713 60.5923H68.8958C74.1628 60.5923 78.4653 64.7084 78.7365 69.8868C84.1455 62.6839 87.3469 53.7446 87.3469 44.0586C87.3469 20.217 67.9384 0.888489 43.9982 0.888489C20.0579 0.888489 0.651245 20.2152 0.651245 44.0586C0.651245 53.8461 3.9236 62.8706 9.43638 70.1133C8.39898 65.4588 11.7878 60.7717 16.7164 60.5977ZM42.0799 12.8528C42.1709 12.8528 42.2601 12.8546 42.3493 12.8564C42.8043 9.64106 44.0036 4.58418 47.1213 2.89312C47.5799 2.6448 48.1569 2.81699 48.4262 3.26287C48.7174 3.7468 48.5409 4.37393 48.0422 4.64218C46.5298 5.45599 43.6997 7.65455 43.0318 12.8981C45.1739 13.112 46.7828 14.1089 46.7828 16.3709C46.7828 18.9573 44.6789 21.0526 42.0817 21.0526C39.4846 21.0526 37.3807 18.9573 37.3807 16.3709C37.3788 13.7844 39.4828 12.8528 42.0799 12.8528ZM32.6123 28.4204H52.3101C56.0993 28.4204 59.3863 30.5501 61.0352 33.673C60.602 33.673 60.1689 33.673 59.7357 33.6748C59.0751 33.6748 58.3325 33.7093 57.8848 34.195C57.4407 34.6753 57.4043 35.4946 56.8365 35.819C56.2522 36.1525 55.5242 35.732 55.0492 35.2589C54.5724 34.7841 54.0937 34.2004 53.4221 34.1479C52.7833 34.0989 52.2009 34.5883 51.937 35.1701C51.4784 36.1833 52.0335 38.0738 50.3063 37.9795C49.3089 37.9251 48.3443 36.8775 48.1824 35.9423C48.0258 35.0324 48.6392 33.8035 47.5636 33.2489C47.316 33.122 47.0267 33.1093 46.75 33.1003C45.2449 33.0513 43.727 33.0024 42.2473 33.2833C41.1499 33.4917 40.0943 33.8778 39.0041 34.1171C35.3441 34.9236 31.3346 33.9666 28.4372 31.5977C27.9094 31.1663 27.4234 30.6951 26.9648 30.1948C28.5646 29.0783 30.5102 28.4204 32.6123 28.4204ZM24.3495 40.4354C24.3913 40.4354 24.4314 40.4354 24.4732 40.4354H60.4492C60.5493 40.4354 60.6494 40.4373 60.7495 40.4391C67.0812 40.6276 69.6529 48.6714 64.6916 52.5919C63.9982 53.1393 63.3575 53.6576 62.8588 54.08C62.0417 54.7723 61.1899 55.4611 60.1834 55.8381C59.3135 56.1643 58.3689 56.2405 57.4389 56.2115C55.7627 56.1589 54.0955 55.7728 52.5704 55.0804C51.1417 54.4334 49.8367 53.5235 48.3716 52.9598C46.9065 52.3961 45.1684 52.2203 43.8271 53.0323C42.0835 54.0872 41.4302 56.5268 39.5374 57.2863C37.9121 57.937 36.0812 57.0524 34.7034 55.9758C33.1291 54.7451 31.7751 53.2317 30.0734 52.1841C28.3717 51.1383 26.1349 50.6253 24.3822 51.5878C23.0118 52.34 22.1837 53.9694 22.3857 55.5154C21.563 55.191 20.7914 54.7615 20.0816 54.2485C14.1101 49.9257 16.9694 40.5261 24.3495 40.4354Z" fill="#D11D65"/>
</svg>
